<?xml version="1.0" encoding="UTF-8" standalone="no"?>
<!-- Generator: Adobe Illustrator 19.0.0, SVG Export Plug-In . SVG Version: 6.00 Build 0)  -->

<svg
   xmlns:dc="http://purl.org/dc/elements/1.1/"
   xmlns:cc="http://creativecommons.org/ns#"
   xmlns:rdf="http://www.w3.org/1999/02/22-rdf-syntax-ns#"
   xmlns:svg="http://www.w3.org/2000/svg"
   xmlns="http://www.w3.org/2000/svg"
   xmlns:sodipodi="http://sodipodi.sourceforge.net/DTD/sodipodi-0.dtd"
   xmlns:inkscape="http://www.inkscape.org/namespaces/inkscape"
   version="1.1"
   id="Capa_1"
   x="0px"
   y="0px"
   viewBox="0 0 513.176 513.176"
   style="enable-background:new 0 0 513.176 513.176;"
   xml:space="preserve"
   sodipodi:docname="layout.svg"
   inkscape:version="0.92.5 (2060ec1f9f, 2020-04-08)"><metadata
   id="metadata55"><rdf:RDF><cc:Work
       rdf:about=""><dc:format>image/svg+xml</dc:format><dc:type
         rdf:resource="http://purl.org/dc/dcmitype/StillImage" /></cc:Work></rdf:RDF></metadata><defs
   id="defs53" /><sodipodi:namedview
   pagecolor="#ffffff"
   bordercolor="#666666"
   borderopacity="1"
   objecttolerance="10"
   gridtolerance="10"
   guidetolerance="10"
   inkscape:pageopacity="0"
   inkscape:pageshadow="2"
   inkscape:window-width="2560"
   inkscape:window-height="1503"
   id="namedview51"
   showgrid="false"
   inkscape:zoom="0.45988119"
   inkscape:cx="-154.3877"
   inkscape:cy="248.97735"
   inkscape:window-x="0"
   inkscape:window-y="27"
   inkscape:window-maximized="1"
   inkscape:current-layer="Capa_1" />

<g
   id="g12"
   style="fill:#ffffff;fill-opacity:1">
	<g
   id="g10"
   style="fill:#ffffff;fill-opacity:1">
		<path
   d="m 448.52,224.136 -0.36,-152 c -0.008,-4.424 -3.6,-7.992 -8.016,-7.984 l -184,0.432 -184,0.44 c -4.424,0.016 -8,3.6 -7.984,8.024 l 0.36,152 0.288,120 0.224,96 c 0.008,4.424 3.6,7.992 8.016,7.984 l 120,-0.288 c 4.416,-0.008 7.992,-3.6 7.984,-8.016 l -0.04,-16 128,-0.304 c 13.232,-0.032 23.976,-10.824 23.944,-24.056 l -0.072,-32 87.992,-0.216 c 4.416,-0.008 7.992,-3.6 7.984,-8.016 z M 352.176,80.36 l 0.152,64 c 0.008,4.424 3.6,7.992 8.016,7.984 4.416,-0.008 7.992,-3.6 7.984,-8.016 l -0.152,-64 64,-0.152 0.32,136 -64,0.152 -0.056,-24 c -0.008,-4.424 -3.6,-7.992 -8.016,-7.984 -4.416,0.008 -7.992,3.6 -7.984,8.016 l 0.056,24 -16,0.04 -48,0.112 -24,0.056 -0.32,-136 z m -23.528,199.248 c -18.24,-3.672 -32.048,-19.8 -32.096,-39.12 l -0.016,-8 21.144,-0.048 10.856,-0.024 z m -80.152,-63 -32,0.072 -0.016,-7.992 c -0.048,-19.32 13.68,-35.512 31.904,-39.272 z m -167.488,216.4 -0.192,-80 32,-0.072 c 4.416,-0.008 7.992,-3.6 7.984,-8.016 -0.008,-4.424 -3.6,-7.992 -8.016,-7.984 l -32,0.08 -0.248,-104 24.408,-0.056 31.592,-0.072 0.016,8 c 0.064,28.152 21.032,51.408 48.128,55.248 l 0.2,83.368 0.088,37.272 0.04,16 z m 71.528,-200.176 32,-0.072 0.112,47.192 c -18.24,-3.672 -32.048,-19.8 -32.096,-39.12 z m -72.056,-15.816 -0.32,-136 64.016,-0.16 0.072,32 c 0.008,4.424 3.6,7.992 8.016,7.984 4.416,-0.008 7.992,-3.6 7.984,-8.016 l -0.08,-32 88,-0.208 0.168,72.64 c -27.08,3.968 -47.936,27.32 -47.872,55.472 l 0.016,8 z m 248.472,191.4 -128,0.304 -0.024,-11.224 -0.064,-28.776 136,-0.32 0.072,32 c 0.008,4.416 -3.568,8.008 -7.984,8.016 z m -128.136,-55.696 -0.048,-19.568 -0.24,-100.432 80,-0.192 0.016,8 c 0.072,30.872 25.256,55.944 56.136,55.864 4.416,-0.008 7.992,-3.6 7.984,-8.016 l -0.136,-56 16,-0.04 72,-0.168 0.288,120 z"
   id="path8"
   inkscape:connector-curvature="0"
   style="fill:#ffffff;fill-opacity:1" />
	</g>
</g>
<g
   id="g18"
   style="fill:#ffffff;fill-opacity:1">
	<g
   id="g16"
   style="fill:#ffffff;fill-opacity:1">
		<path
   d="M 448.952,408.144 C 448.92,394.896 438.128,384.16 424.896,384.192 l -32,0.08 c -13.232,0.032 -23.976,10.824 -23.944,24.056 l 0.072,32 c 0.008,4.424 3.6,7.992 8.016,7.984 l 64,-0.152 c 4.416,-0.008 7.992,-3.6 7.984,-8.016 z m -63.944,24.144 -0.056,-24 c -0.008,-4.416 3.568,-8.008 7.984,-8.016 l 32,-0.08 c 4.408,-0.008 8.008,3.568 8.016,7.984 l 0.056,24 z"
   id="path14"
   inkscape:connector-curvature="0"
   style="fill:#ffffff;fill-opacity:1" />
	</g>
</g>
<g
   id="g20">
</g>
<g
   id="g22">
</g>
<g
   id="g24">
</g>
<g
   id="g26">
</g>
<g
   id="g28">
</g>
<g
   id="g30">
</g>
<g
   id="g32">
</g>
<g
   id="g34">
</g>
<g
   id="g36">
</g>
<g
   id="g38">
</g>
<g
   id="g40">
</g>
<g
   id="g42">
</g>
<g
   id="g44">
</g>
<g
   id="g46">
</g>
<g
   id="g48">
</g>
</svg>