<?xml version="1.0" encoding="UTF-8" standalone="no"?>
<!-- Generator: Adobe Illustrator 19.0.0, SVG Export Plug-In . SVG Version: 6.00 Build 0)  -->

<svg
   xmlns:dc="http://purl.org/dc/elements/1.1/"
   xmlns:cc="http://creativecommons.org/ns#"
   xmlns:rdf="http://www.w3.org/1999/02/22-rdf-syntax-ns#"
   xmlns:svg="http://www.w3.org/2000/svg"
   xmlns="http://www.w3.org/2000/svg"
   xmlns:sodipodi="http://sodipodi.sourceforge.net/DTD/sodipodi-0.dtd"
   xmlns:inkscape="http://www.inkscape.org/namespaces/inkscape"
   version="1.1"
   id="Capa_1"
   x="0px"
   y="0px"
   viewBox="0 0 512 512"
   style="enable-background:new 0 0 512 512;"
   xml:space="preserve"
   sodipodi:docname="mail.svg"
   inkscape:version="0.92.5 (2060ec1f9f, 2020-04-08)"><metadata
   id="metadata43"><rdf:RDF><cc:Work
       rdf:about=""><dc:format>image/svg+xml</dc:format><dc:type
         rdf:resource="http://purl.org/dc/dcmitype/StillImage" /></cc:Work></rdf:RDF></metadata><defs
   id="defs41" /><sodipodi:namedview
   pagecolor="#ffffff"
   bordercolor="#666666"
   borderopacity="1"
   objecttolerance="10"
   gridtolerance="10"
   guidetolerance="10"
   inkscape:pageopacity="0"
   inkscape:pageshadow="2"
   inkscape:window-width="2560"
   inkscape:window-height="1503"
   id="namedview39"
   showgrid="false"
   inkscape:zoom="0.4609375"
   inkscape:cx="256"
   inkscape:cy="256"
   inkscape:window-x="0"
   inkscape:window-y="27"
   inkscape:window-maximized="1"
   inkscape:current-layer="Capa_1" />
<g
   id="g6"
   style="fill:#6ca3a7;fill-opacity:1">
	<g
   id="g4"
   style="fill:#6ca3a7;fill-opacity:1">
		<path
   d="M 485.743,85.333 H 26.257 C 11.815,85.333 0,97.148 0,111.589 V 400.41 c 0,14.44 11.815,26.257 26.257,26.257 h 459.487 c 14.44,0 26.257,-11.815 26.257,-26.257 V 111.589 C 512,97.148 500.185,85.333 485.743,85.333 Z m -9.853,19.691 -204.786,153.602 c -3.682,2.802 -9.334,4.555 -15.105,4.529 -5.77,0.026 -11.421,-1.727 -15.104,-4.529 L 36.109,105.024 Z M 366.5,268.761 478.09,406.608 c 0.112,0.138 0.249,0.243 0.368,0.368 H 33.542 c 0.118,-0.131 0.256,-0.23 0.368,-0.368 L 145.5,268.761 c 3.419,-4.227 2.771,-10.424 -1.464,-13.851 -4.227,-3.419 -10.424,-2.771 -13.844,1.457 L 19.692,392.868 V 117.332 l 209.394,157.046 c 7.871,5.862 17.447,8.442 26.912,8.468 9.452,-0.02 19.036,-2.6 26.912,-8.468 L 492.304,117.332 V 392.866 L 381.807,256.367 c -3.42,-4.227 -9.623,-4.877 -13.844,-1.457 -4.234,3.419 -4.884,9.624 -1.463,13.851 z"
   id="path2"
   inkscape:connector-curvature="0"
   style="fill:#6ca3a7;fill-opacity:1" />
	</g>
</g>
<g
   id="g8">
</g>
<g
   id="g10">
</g>
<g
   id="g12">
</g>
<g
   id="g14">
</g>
<g
   id="g16">
</g>
<g
   id="g18">
</g>
<g
   id="g20">
</g>
<g
   id="g22">
</g>
<g
   id="g24">
</g>
<g
   id="g26">
</g>
<g
   id="g28">
</g>
<g
   id="g30">
</g>
<g
   id="g32">
</g>
<g
   id="g34">
</g>
<g
   id="g36">
</g>
</svg>